<?xml version="1.0" standalone="no"?>
<!DOCTYPE svg PUBLIC "-//W3C//DTD SVG 20010904//EN"
 "http://www.w3.org/TR/2001/REC-SVG-20010904/DTD/svg10.dtd">
<svg version="1.0" xmlns="http://www.w3.org/2000/svg"
 width="192.000000pt" height="192.000000pt" viewBox="0 0 192.000000 192.000000"
 preserveAspectRatio="xMidYMid meet">

<g transform="translate(0.000000,192.000000) scale(0.100000,-0.100000)"
fill="#000000" stroke="none">
<path d="M0 960 l0 -960 960 0 960 0 0 960 0 960 -960 0 -960 0 0 -960z m625
730 c3 -11 3 -24 0 -30 -4 -7 107 -10 332 -10 l339 0 -1 28 c0 21 5 28 23 30
18 3 26 -3 35 -27 11 -30 13 -31 77 -31 105 -1 167 -38 196 -117 17 -49 20
-1065 3 -1128 -14 -50 -64 -100 -114 -114 -62 -17 -180 -14 -199 5 -37 37 -9
54 91 54 159 0 163 8 163 295 l0 216 -72 -3 c-70 -3 -73 -4 -87 -33 -50 -109
-109 -79 -131 67 -7 46 -15 79 -17 73 -1 -5 -14 -70 -27 -143 -14 -74 -30
-140 -37 -148 -18 -21 -57 -17 -73 8 -8 13 -28 107 -46 210 -50 304 -54 300
-60 -52 -5 -288 -6 -305 -24 -308 -10 -2 -22 2 -27 10 -5 7 -9 150 -10 318
l-1 305 -20 -44 c-11 -25 -33 -108 -49 -185 -37 -176 -46 -204 -70 -217 -48
-25 -69 7 -109 168 -22 94 -33 107 -43 55 -3 -15 -15 -40 -27 -55 -17 -22 -30
-27 -65 -27 -34 0 -46 5 -59 25 -21 32 -20 33 9 27 51 -9 72 5 90 60 17 53 45
88 71 88 30 0 53 -45 80 -156 16 -62 29 -112 31 -111 1 2 16 70 33 152 36 170
60 235 101 270 27 22 29 28 29 98 0 78 12 103 44 91 13 -5 16 -22 16 -87 0
-73 3 -84 25 -107 37 -38 62 -120 90 -291 14 -84 26 -154 28 -156 2 -2 15 61
28 139 28 171 47 202 98 161 15 -13 25 -41 36 -98 26 -140 23 -134 46 -96 24
40 54 51 135 51 l64 0 0 301 0 301 -29 29 c-26 26 -36 29 -91 29 -59 0 -61 -1
-54 -22 16 -54 24 -67 44 -73 30 -9 52 -58 41 -88 -11 -29 -48 -57 -74 -57
-45 0 -87 86 -57 116 7 7 4 28 -8 65 l-19 54 -363 0 -362 0 -19 -49 c-17 -41
-18 -53 -7 -82 23 -64 -30 -120 -91 -95 -60 25 -64 106 -7 133 16 7 30 26 40
54 l15 44 -59 0 c-48 0 -64 -5 -87 -24 -26 -23 -28 -30 -33 -123 l-5 -98 -30
0 c-30 0 -30 0 -33 65 -5 104 5 147 45 191 40 44 81 59 168 59 58 0 61 1 72
30 13 35 48 41 58 10z m-277 -431 c3 -31 7 -38 32 -42 63 -13 140 -116 126
-170 -13 -54 -66 -41 -85 22 -10 36 -42 71 -63 71 -5 0 -8 -49 -8 -109 l0
-109 28 -7 c36 -8 98 -58 118 -97 17 -33 20 -111 6 -149 -17 -44 -61 -87 -107
-105 -39 -14 -45 -21 -45 -45 0 -26 -3 -29 -35 -29 -32 0 -35 3 -35 29 0 25
-7 32 -52 55 -61 29 -97 76 -105 134 -5 34 -2 42 16 51 29 16 57 -1 64 -39 7
-31 47 -80 67 -80 6 0 10 40 10 108 l0 109 -39 12 c-41 12 -95 65 -112 108
-13 35 -11 98 5 136 17 41 79 96 117 104 25 5 29 10 29 38 0 39 7 47 40 43 21
-3 25 -9 28 -39z m1030 -685 c52 -59 9 -134 -99 -168 -51 -17 -68 -28 -86 -56
-34 -55 -53 -70 -197 -153 -107 -63 -143 -78 -176 -79 -87 -1 -72 15 166 172
126 84 227 157 225 163 -21 61 -1 114 51 141 42 21 86 14 116 -20z m-410 -125
c50 -30 93 -58 93 -63 1 -6 -14 -19 -34 -30 l-34 -20 -114 74 c-63 40 -116 75
-119 77 -13 11 31 23 70 20 31 -3 73 -20 138 -58z m-618 -20 c0 -11 13 -34 29
-50 l29 -29 242 0 c214 0 241 -2 247 -16 3 -9 2 -24 -4 -33 -9 -14 -40 -16
-249 -16 -209 0 -243 2 -271 17 -40 22 -79 73 -88 116 -6 31 -6 32 29 32 30 0
36 -4 36 -21z m870 -164 c14 -8 38 -14 53 -15 96 -1 159 -97 107 -163 -60 -76
-190 -14 -177 84 5 38 3 41 -29 57 l-35 16 23 18 c28 21 27 21 58 3z"/>
<path d="M473 1434 c-9 -24 10 -49 38 -49 20 0 24 5 24 30 0 25 -4 30 -28 33
-18 2 -29 -2 -34 -14z"/>
<path d="M1384 1436 c-10 -26 1 -51 22 -54 27 -4 47 21 39 48 -7 24 -53 28
-61 6z"/>
<path d="M243 1125 c-26 -19 -47 -77 -38 -107 9 -27 33 -56 57 -69 17 -9 18
-2 18 91 0 55 -3 100 -8 100 -4 0 -17 -7 -29 -15z"/>
<path d="M350 730 c0 -96 1 -100 19 -90 64 34 80 113 32 161 -16 16 -34 29
-40 29 -7 0 -11 -35 -11 -100z"/>
<path d="M1283 550 c-29 -12 -41 -56 -20 -77 22 -22 69 -4 82 31 8 23 6 30
-10 42 -21 16 -22 16 -52 4z"/>
<path d="M1090 315 c0 -8 7 -15 15 -15 8 0 15 7 15 15 0 8 -7 15 -15 15 -8 0
-15 -7 -15 -15z"/>
<path d="M1268 189 c-39 -22 -6 -89 43 -89 46 0 49 68 4 88 -30 14 -26 14 -47
1z"/>
</g>
</svg>
