<?xml version="1.0" standalone="no"?>
<!DOCTYPE svg PUBLIC "-//W3C//DTD SVG 20010904//EN"
 "http://www.w3.org/TR/2001/REC-SVG-20010904/DTD/svg10.dtd">
<svg version="1.0" xmlns="http://www.w3.org/2000/svg"
 width="512.000000pt" height="512.000000pt" viewBox="0 0 512.000000 512.000000"
 preserveAspectRatio="xMidYMid meet">

<g transform="translate(0.000000,512.000000) scale(0.100000,-0.100000)"
fill="#000000" stroke="none">
<path d="M0 2560 l0 -2560 2560 0 2560 0 0 2560 0 2560 -2560 0 -2560 0 0
-2560z m1664 1971 c29 -30 29 -29 14 -116 -3 -20 3 -20 901 -23 l903 -2 -6 27
c-18 74 -18 79 9 111 21 26 34 32 64 32 48 0 68 -22 96 -103 l22 -62 194 -6
c107 -3 210 -11 230 -17 55 -18 150 -83 194 -134 50 -57 92 -141 105 -209 14
-72 13 -2879 -1 -2938 -29 -129 -129 -251 -254 -312 l-70 -34 -240 -3 c-153
-2 -250 0 -268 7 -39 15 -64 70 -48 108 24 58 46 63 288 63 190 0 223 3 259
19 60 27 114 80 140 136 l24 50 0 573 0 572 -190 0 c-183 0 -190 -1 -210 -22
-11 -13 -24 -34 -27 -48 -12 -50 -51 -125 -77 -149 -19 -18 -41 -26 -81 -29
-55 -5 -56 -4 -99 40 -24 25 -46 56 -49 69 -30 135 -47 222 -62 317 -24 148
-33 148 -55 2 -6 -41 -20 -120 -31 -175 -11 -55 -31 -163 -44 -240 -33 -190
-41 -214 -85 -257 -31 -31 -45 -38 -76 -38 -53 0 -97 30 -122 82 -19 39 -72
292 -87 413 -3 28 -10 70 -15 95 -5 25 -16 95 -25 155 -25 167 -43 260 -72
374 -30 122 -50 174 -63 166 -6 -4 -10 -297 -10 -796 l0 -790 -25 -24 c-13
-14 -33 -25 -45 -25 -26 0 -66 26 -75 48 -5 12 -19 1483 -15 1640 1 42 -48
-42 -88 -153 -20 -55 -60 -218 -86 -350 -26 -134 -99 -482 -115 -546 -28 -119
-135 -175 -221 -117 -57 39 -75 92 -181 520 -24 98 -48 176 -54 175 -5 -2 -16
-23 -23 -48 -38 -122 -65 -181 -107 -223 -49 -51 -91 -66 -185 -66 l-65 0 -62
69 c-35 38 -63 74 -63 80 0 7 42 11 124 11 122 0 125 1 145 26 11 14 36 75 55
135 41 126 73 182 118 205 39 20 105 14 141 -12 29 -21 64 -78 78 -127 25 -85
110 -415 133 -519 4 -16 10 -28 15 -28 11 0 24 56 80 335 69 343 82 397 116
501 59 181 131 289 214 324 l31 12 0 182 c0 99 5 198 10 218 18 65 74 86 124
47 l26 -20 0 -214 c0 -230 -1 -224 56 -262 43 -28 100 -127 137 -239 49 -149
79 -295 137 -664 42 -275 52 -323 60 -313 6 7 25 114 106 585 26 153 39 192
79 228 21 20 37 25 80 25 45 0 58 -4 84 -29 38 -37 44 -53 76 -226 56 -299 67
-355 75 -363 4 -5 23 22 41 59 20 40 49 80 72 98 l39 31 216 5 217 5 3 780 c3
875 6 828 -71 912 -65 71 -82 76 -254 81 -105 3 -153 0 -153 -7 0 -14 58 -189
71 -212 5 -11 16 -19 25 -19 17 0 58 -24 92 -54 88 -78 78 -228 -20 -305 -35
-28 -106 -45 -150 -37 -50 9 -114 58 -138 105 -29 58 -27 131 6 191 l26 48
-25 69 c-14 37 -33 91 -42 118 -10 28 -22 62 -27 78 l-10 27 -967 0 c-997 0
-991 0 -991 -38 0 -8 -18 -63 -40 -123 -41 -110 -48 -153 -30 -164 18 -11 40
-76 40 -117 0 -94 -102 -198 -194 -198 -85 0 -172 69 -196 155 -28 100 32 204
138 240 34 12 38 18 74 121 20 60 38 112 38 117 0 4 -64 7 -142 7 -117 0 -150
-4 -184 -19 -61 -28 -109 -75 -135 -133 -22 -49 -24 -70 -29 -278 l-5 -225
-77 -3 c-69 -3 -78 -1 -88 18 -14 26 -6 405 10 476 35 157 175 297 331 333 24
6 118 11 210 11 171 0 189 4 189 42 0 24 26 76 53 106 30 32 76 29 111 -7z
m-736 -1156 c3 -105 6 -112 49 -120 124 -22 280 -143 336 -258 63 -131 72
-207 30 -257 -35 -42 -65 -53 -113 -40 -46 12 -74 48 -84 105 -11 56 -42 125
-74 158 -34 36 -121 82 -133 70 -5 -5 -8 -135 -7 -292 l3 -283 83 -29 c103
-34 163 -72 234 -147 92 -96 128 -190 128 -332 0 -143 -47 -255 -147 -351 -75
-73 -136 -105 -260 -138 l-42 -12 -3 -77 -3 -77 -82 -3 c-81 -3 -83 -2 -89 23
-4 14 -4 48 -2 75 3 27 2 53 -1 57 -3 5 -37 19 -76 32 -167 54 -297 189 -341
356 -28 104 -9 161 63 191 28 12 38 12 65 1 49 -21 70 -50 89 -127 10 -39 31
-89 47 -113 33 -47 139 -118 150 -100 5 8 7 454 2 570 0 7 -19 17 -42 24 -80
20 -185 80 -237 133 -110 111 -151 207 -151 351 0 124 35 217 125 328 51 63
207 157 263 157 38 0 45 15 43 90 -3 112 -4 111 92 108 l82 -3 3 -70z m2696
-1790 c82 -39 137 -130 135 -224 -1 -64 -17 -103 -67 -161 -56 -65 -105 -92
-237 -130 -114 -32 -190 -68 -224 -104 -11 -11 -36 -53 -55 -92 -41 -84 -76
-121 -154 -165 -31 -18 -118 -68 -192 -112 -220 -130 -452 -261 -500 -282 -88
-39 -291 -20 -290 28 0 6 22 26 48 43 84 56 873 575 1033 680 53 35 108 68
122 75 33 15 33 22 2 83 -14 27 -25 67 -25 88 0 48 29 125 64 171 31 41 114
98 166 115 45 14 129 8 174 -13z m-1250 -280 c142 -69 501 -279 501 -292 0
-13 -176 -133 -195 -133 -7 0 -51 25 -98 56 -48 31 -132 86 -187 121 -253 163
-349 229 -353 240 -8 26 69 52 157 53 80 0 89 -2 175 -45z m-1439 -142 c24
-114 63 -173 144 -215 l53 -28 617 0 c569 0 618 -2 637 -18 51 -41 54 -105 7
-142 -25 -20 -39 -20 -637 -20 -375 0 -628 4 -655 11 -115 26 -239 123 -294
230 -29 55 -59 172 -50 196 4 9 28 13 89 13 83 0 84 0 89 -27z m2311 -457 c32
-29 82 -44 186 -56 99 -12 141 -25 195 -61 92 -64 133 -137 133 -241 0 -98
-75 -192 -174 -219 -119 -32 -267 35 -330 150 -38 72 -45 144 -17 206 11 26
21 49 21 50 0 2 -43 24 -96 49 -53 25 -94 50 -92 56 4 12 120 88 136 89 7 1
24 -10 38 -23z"/>
<path d="M1313 3858 c-30 -15 -56 -72 -48 -107 16 -74 109 -101 162 -48 77 77
-15 203 -114 155z"/>
<path d="M3728 3840 c-27 -28 -30 -36 -25 -76 2 -25 13 -54 22 -64 25 -28 76
-35 113 -16 39 20 52 44 52 94 0 33 -6 45 -31 66 -43 37 -91 35 -131 -4z"/>
<path d="M700 3019 c-92 -55 -140 -128 -148 -226 -6 -82 12 -143 58 -196 38
-43 121 -94 137 -84 6 4 9 459 4 520 -1 12 -14 8 -51 -14z"/>
<path d="M930 1945 c0 -302 -5 -288 87 -235 90 52 136 133 136 240 0 108 -51
188 -153 240 -74 38 -70 51 -70 -245z"/>
<path d="M3455 1455 c-54 -24 -87 -69 -93 -124 -4 -46 -2 -53 26 -81 92 -92
282 40 232 160 -23 55 -97 75 -165 45z"/>
<path d="M2936 854 c-21 -21 -20 -47 2 -67 24 -22 45 -21 65 1 46 51 -19 115
-67 66z"/>
<path d="M3430 499 c-73 -30 -92 -101 -45 -171 79 -117 265 -81 241 46 -9 46
-50 94 -101 117 -45 21 -59 22 -95 8z"/>
</g>
</svg>
